<svg width="154" height="161" viewBox="0 0 154 161" fill="none" xmlns="http://www.w3.org/2000/svg">
<path d="M81.39 160.09C78.46 160.09 75.53 160.09 72.46 160.03C71.32 159.88 70.33 159.8 69.34 159.7C59.85 158.77 50.89 156.03 42.45 151.62C32.78 146.56 24.59 139.7 17.82 131.15C8.26 119.06 2.65 105.32 0.82 90.02C0.65 88.59 0.44 87.16 0.25 85.74C0.25 82.28 0.25 78.82 0.32 75.22C0.88 68.5 1.99 62.05 3.97 55.75C7.92 43.21 14.46 32.22 23.74 22.9C30.6 16 38.49 10.59 47.44 6.73001C54.72 3.59001 62.29 1.63 70.19 0.940002C71 0.870002 71.81 0.730005 72.62 0.630005C75.55 0.630005 78.48 0.630012 81.54 0.700012C84.34 1.10001 87.02 1.36001 89.67 1.79001C95.54 2.73001 99.67 6.79 100.81 12.62C101.84 17.85 99.11 23.6 94.39 26.63C91.83 28.27 89.36 30.09 87.03 32.04C83.79 34.75 80.78 37.73 78.56 41.37C74 48.85 71.87 56.87 72.51 65.75C73.03 73.08 78.29 80.3 85.28 82.94C89.79 84.65 94.46 84.6 99.14 84.07C107.37 83.14 114.36 79.53 120.45 73.99C124.21 70.57 127.4 66.7 130.23 62.49C132.39 59.28 135.47 57.37 139.32 57.07C146.23 56.52 151.71 61.03 152.76 67.9C152.94 69.07 153.15 70.23 153.34 71.39C153.34 76.18 153.34 80.97 153.28 85.91C152.87 88.89 152.67 91.75 152.15 94.55C147.64 118.65 135.17 137.36 114.05 150.02C104.72 155.61 94.55 158.8 83.69 159.76C82.91 159.83 82.15 159.98 81.38 160.1L81.39 160.09Z" fill="#DFDFDE"/>
<path d="M76.74 151.77C67.51 151.77 58.57 149.88 50.14 146.14C42.01 142.54 34.71 137.38 28.44 130.82C22.18 124.26 17.26 116.62 13.83 108.12C10.28 99.3199 8.47998 89.9799 8.47998 80.3499C8.47998 70.7199 10.28 61.3799 13.83 52.5799C17.26 44.0799 22.18 36.4399 28.44 29.8799C34.71 23.3199 42.01 18.1599 50.14 14.5599C58.56 10.8299 67.51 8.92993 76.74 8.92993C80.6 8.92993 84.48 9.26994 88.26 9.93994C90.63 10.3599 92.3 12 92.6 14.2C92.92 16.54 91.57 18.8699 89.23 19.9899C86.38 21.3599 77.77 28.36 73 34.7299C68.36 40.9299 65.86 48.9999 65.29 51.5899L65.26 51.7299C64.14 56.7899 63.68 58.89 64.38 67.67C65.23 78.4 74.61 90.5399 88.84 92.2599C96.95 93.2399 106.24 91.8999 112.51 88.8299C112.84 88.6699 113.18 88.4999 113.54 88.3299C115.85 87.2099 118.48 85.9499 120.51 84.4399C127.23 79.4599 132.25 74.1699 136.8 67.2799C137.83 65.7199 139.52 64.9599 141.21 65.3099C142.88 65.6599 144.11 67.0099 144.43 68.8299C145.06 72.4399 145.04 75.09 145.02 78.45C145.02 79.05 145.02 79.6699 145.02 80.3199C145.02 89.9499 143.22 99.2899 139.67 108.09C136.24 116.59 131.32 124.23 125.06 130.79C118.79 137.35 111.49 142.51 103.36 146.11C94.94 149.84 85.99 151.74 76.76 151.74L76.74 151.77ZM76.74 12.6099C41.13 12.6099 12.16 42.9999 12.16 80.3499C12.16 117.7 41.13 148.09 76.74 148.09C112.35 148.09 141.32 117.7 141.32 80.3499C141.32 79.6899 141.32 79.0599 141.32 78.4599C141.34 75.1599 141.35 72.7799 140.78 69.4899C140.73 69.1899 140.6 68.9799 140.44 68.9399C140.27 68.8999 140.04 69.0599 139.86 69.3299C135.06 76.5999 129.77 82.18 122.69 87.42C120.38 89.13 117.47 90.5399 115.13 91.6599C114.78 91.8299 114.44 91.9899 114.12 92.1499C107.25 95.5099 97.15 96.99 88.39 95.92C72.3 93.97 61.68 80.1699 60.71 67.9599C59.97 58.6299 60.5 56.2199 61.67 50.9299L61.7 50.7899C62.32 47.9799 65.03 39.2299 70.06 32.5099C75 25.9199 84.13 18.3499 87.64 16.6599C88.74 16.1299 89.03 15.2699 88.95 14.6899C88.87 14.0899 88.39 13.6899 87.62 13.5499C84.05 12.9199 80.39 12.5899 76.75 12.5899L76.74 12.6099Z" fill="#231F20"/>
<path d="M28.96 41.5599C28.96 41.5599 44.8 22.1599 51.05 24.9899C57.3 27.8199 53.55 36.8199 53.55 36.8199L50.66 44.8399C50.66 44.8399 49.87 47.0799 51.12 46.8099C52.37 46.5399 52.76 46.0199 55.13 39.4499C57.5 32.8799 58.48 29.1299 56.51 26.7299C54.54 24.3299 57.36 21.1699 57.36 21.1699C57.36 21.1699 61.7 17.5399 68.8 17.1899C75.9 16.8399 78.14 16.7799 78.5 17.0599C78.86 17.3399 79.44 17.6499 78.38 18.4899C77.32 19.3299 75.45 20.8699 74.7 21.4999C73.95 22.1299 66.71 28.5499 63.61 34.4699C60.51 40.3899 58.09 46.6999 57.35 49.8499C56.61 52.9999 55.72 61.0399 55.82 63.7099C55.92 66.3799 55.8 66.7899 55.43 67.1599C55.06 67.5299 54.37 67.5099 53.65 67.2299C52.93 66.9499 51.92 65.7499 51.36 65.3599C50.8 64.9699 45.42 61.8599 45.02 61.6599C44.62 61.4599 42.31 60.2499 41.99 57.6199C41.67 54.9899 41.3 50.8199 42.21 46.5499C43.12 42.2799 43.66 40.5299 43.66 40.5299C43.66 40.5299 44.28 38.6299 43.27 38.4099C42.26 38.1899 38.83 43.7799 38.31 44.9899C37.79 46.1999 34.39 52.7099 37.64 56.2799C40.89 59.8499 37.66 59.3899 37.66 59.3899C37.66 59.3899 26.91 58.2799 24.72 58.5299C22.53 58.7799 21.37 57.3699 21.76 55.1999C22.15 53.0299 22.85 50.1599 28.95 41.5499L28.96 41.5599Z" fill="#231F20"/>
<path d="M51.67 68.8399C48.27 65.5399 41.27 62.9699 41.27 62.9699C41.27 62.9699 27.88 58.8999 21.37 64.6999C14.86 70.4899 16.33 80.4799 16.33 80.4799C16.61 86.1499 19.57 92.8099 23.96 95.5199C28.35 98.2299 35.05 98.0299 42.75 95.0299C50.45 92.0299 56.95 86.2499 57.79 81.5199C58.63 76.7899 55.08 72.1499 51.68 68.8499L51.67 68.8399ZM44.96 79.5099C44.71 80.0399 39.19 86.2999 34.51 85.9099C29.83 85.5199 28.84 83.5899 28.4 82.6999C27.96 81.8099 26.87 76.9299 30.57 72.8899C30.57 72.8899 33.92 68.4999 40.28 71.7099C46.64 74.9199 45.21 78.9799 44.96 79.5099Z" fill="#231F20"/>
<path d="M31.9 103.16C31.9 103.16 37.42 99.8699 42.95 97.4199C48.48 94.9699 58.09 87.0299 58.58 86.6399C59.07 86.2499 61.05 84.9099 62.62 85.4599C64.19 86.0099 66.86 90.1899 67.06 90.8299C67.26 91.4699 68.79 93.5399 65.73 100.49C62.67 107.44 62.29 108.1 60.32 107.18C58.35 106.26 56.24 103.71 56.29 103.4C56.34 103.09 56.03 102.41 56.83 101.49C57.63 100.57 61.43 96.8099 61.32 95.3399C61.21 93.8699 60.25 93.7899 59.94 93.8299C59.63 93.8699 59.53 93.1999 54.58 97.4099C49.63 101.62 44.87 105.96 43.98 107.12C43.09 108.28 41.17 110.45 41.47 111.98C41.77 113.51 42.8 115.21 43.44 115.33C44.08 115.45 46.15 115.63 47.71 114.07C49.27 112.51 50.37 111.26 50.69 111.09C51.01 110.92 51.82 110.1 53.6 111.63C55.38 113.16 58.36 115.25 58.43 116.61C58.5 117.97 59.19 119.2 54.19 124.25C49.19 129.3 46.2 131.23 41.81 129.87C37.42 128.51 29.68 120.87 27.83 114.73C25.98 108.59 29.37 104.58 31.9 103.14V103.16Z" fill="#231F20"/>
<path d="M74.72 95.2399C74.72 95.2399 78.76 97.6399 81 98.1299C83.24 98.6199 84.81 98.9199 84.91 99.7099C85.01 100.5 84.91 101.35 84.55 103.46C84.19 105.57 82.64 112.4 82.41 113.12C82.18 113.84 81.69 115.36 80.4 114.8C79.11 114.24 78.69 112.7 78.82 112.01C78.95 111.32 79.64 108.16 79.26 107.39C78.88 106.62 78.27 106.78 77.93 107.56C77.59 108.34 71.36 125.22 70.48 129.46C69.59 133.7 68.7 138.93 68.31 140.01C67.92 141.09 67.52 142.02 65.52 141.62C63.52 141.22 50.56 137.12 50.33 135.24C50.1 133.36 51.55 132.15 52.5 131.66C53.45 131.17 62.62 122.49 66.24 116.97C68.4 113.67 71.66 108.16 72.19 105.27C72.72 102.38 69.92 104.61 69.23 105.93C68.54 107.25 66.9 109.71 65.25 109.12C63.6 108.53 64.07 107.61 65.05 105.83C66.03 104.05 69.85 98.4299 69.78 94.8799C69.71 91.3299 73.92 95.3699 74.71 95.2399H74.72Z" fill="#231F20"/>
<path d="M101.77 134.62C101.54 134.03 100.16 126.83 99.63 124.59C99.1 122.35 96.61 103.19 96.24 101.22C95.87 99.2499 91.83 99.6699 91.83 99.6699C87.06 99.4699 87.25 101.29 86.87 102.76C86.69 103.46 85.62 108.35 83.85 114.66C82.07 120.97 71.67 138.95 70.98 140.32C70.29 141.69 71.14 142.46 73.2 142.77C75.26 143.08 83.62 142.93 84.94 142.03C86.26 141.13 85.25 139.86 84.64 138.89C84.03 137.92 84.38 134.39 85.17 131.59C85.96 128.79 88.13 128.01 89.67 127.91C91.21 127.81 92.22 129.08 92.15 130.46C92.08 131.84 91.85 133.86 91.71 134.9C91.57 135.94 90.71 137.92 90.69 137.99C90.64 138.11 90.17 139.23 90.23 139.8C90.36 141.13 92.33 140.93 92.91 140.77C93.49 140.61 98.65 139.06 100.65 138.07C102.65 137.08 102 135.21 101.77 134.62ZM91.9 121.36C91.9 121.36 90.56 121.62 89.32 121.59C88.08 121.56 88.12 120.67 88.21 119.99C88.31 119.29 90.61 108.68 91.26 108.68C92.01 108.68 91.94 110.16 92.89 119.57C93.06 121.25 91.9 121.36 91.9 121.36Z" fill="#231F20"/>
<path d="M101.24 99.8899C101.24 99.8899 106.25 98.6599 107.12 98.4099C107.99 98.1599 110.59 97.2599 110.85 97.0999C111.11 96.9399 112.21 96.1599 113.12 99.1699C114.03 102.18 114.17 102.92 114.27 103.67C114.37 104.42 114.04 106 111.97 105.48C109.9 104.96 108.21 105.09 107.55 105.74C106.89 106.39 106.24 107.42 106.63 109.64C107.02 111.86 107.71 111.55 108.11 111.46C108.51 111.37 110.43 110.34 111.05 109.85C111.67 109.36 113.01 108.24 113.5 109.21C113.99 110.18 114.4 112.51 114.35 113.5C114.3 114.49 114.61 115.69 112.07 115.87C109.53 116.05 107.09 116.58 108.52 120.39C109.95 124.2 112.09 121.72 112.19 121.66C112.29 121.6 115.26 118.62 115.74 117.72C116.22 116.82 117.3 116.26 117.6 117.64C117.9 119.02 118.87 123 118.8 123.87C118.73 124.74 119.47 125.58 115.25 129.01C111.03 132.44 106.34 135.12 105.59 135.39C104.84 135.66 103.85 135.39 103.75 133.94C103.65 132.49 101.15 111.62 100.86 109.94C100.57 108.26 99.78 104.15 99.41 103.27C99.04 102.39 98.79 100.25 101.25 99.8999L101.24 99.8899Z" fill="#231F20"/>
<path d="M115.77 95.4699C115.77 95.4699 120.87 92.5299 121.21 92.1799C121.55 91.8299 124.34 90.2699 123.59 93.9599C122.75 98.0899 123.49 104.74 123.61 105.05C123.73 105.36 124.04 108.34 125.39 108.17C126.74 108 128.69 104.14 128.91 103.37C129.13 102.6 129.35 101.36 129.6 100.87C129.85 100.38 130.27 99.7999 131.31 99.9299C132.35 100.06 132.9 101.79 132.87 103.09C132.84 104.39 132.74 104.39 132.48 104.9C132.22 105.41 128.12 113.55 127.75 114.14C127.38 114.73 123.07 121.11 122.31 121.67C121.55 122.23 120.7 123.12 120.03 119.7C119.36 116.28 116.91 103.69 115.79 100.55C114.67 97.4099 114.75 95.9599 115.79 95.4699H115.77Z" fill="#231F20"/>
<path d="M127.93 87.6799C125.48 89.3099 129.27 90.6799 131.05 93.3699C133.1 96.4799 134.33 99.3799 135.3 96.5799C136.17 94.0699 141.03 82.1899 138.48 77.4199C137.3 75.1999 135.42 82.6899 127.93 87.6799Z" fill="#231F20"/>
</svg>
